<svg width="42" height="42" viewBox="0 0 42 42" fill="none" xmlns="http://www.w3.org/2000/svg">
<rect width="42" height="42" fill="#1E1E1E"/>
<g id="Activate Scar Alpha">
<g clip-path="url(#clip0_1_3)">
<rect x="-344" y="-63" width="402" height="874" rx="20" fill="#020101"/>
<g id="main container">
<g id="user info container">
<g id="user info frame">
<g id="user info rounded rectangle">
<rect width="42" height="42" rx="15" fill="#1D1F20"/>
<rect x="0.5" y="0.5" width="41" height="41" rx="14.5" stroke="#330001" stroke-opacity="0.4"/>
</g>
<path id="Vector" d="M22.6348 29.6074C22.5303 29.7012 22.4204 29.7874 22.3037 29.8623C21.9057 30.1176 21.4551 30.2485 21 30.249C20.5451 30.2484 20.095 30.1174 19.6973 29.8623C19.5804 29.7874 19.4698 29.7013 19.3652 29.6074H22.6348ZM21 11.75C21.6944 11.75 22.4494 12.3052 22.7461 13.3701L22.7871 13.5176L22.8828 13.6377C22.9471 13.718 23.0263 13.7879 23.1182 13.8428L23.1582 13.8672L23.2002 13.8857C23.9864 14.2327 24.5823 14.6742 25.0381 15.2266L25.2256 15.4707C25.875 16.3795 26.2402 17.6416 26.2402 19.2764C26.2403 20.9874 26.3791 22.1031 26.6709 22.9658C26.9686 23.846 27.4108 24.4113 27.8662 25.002L27.8672 25.0029C27.9118 25.0606 28.018 25.1991 28.0703 25.2666C28.1629 25.3866 28.2252 25.5382 28.2441 25.7041C28.2631 25.8699 28.2364 26.0364 28.1709 26.1826V26.1846C28.0302 26.4998 27.7495 26.6766 27.4326 26.6768H14.5723C14.2503 26.6766 13.9682 26.4969 13.8291 26.1826L13.8281 26.1807C13.7629 26.0344 13.7368 25.8677 13.7559 25.7021C13.775 25.5366 13.8381 25.3853 13.9307 25.2656L13.9346 25.2607L14.1338 25.001C14.5899 24.4106 15.0324 23.8453 15.3301 22.9648C15.6217 22.1021 15.7607 20.9859 15.7607 19.2744C15.7608 17.8378 16.0289 16.7161 16.5244 15.8525C17.0146 14.9984 17.7573 14.3439 18.8018 13.8828L18.8438 13.8643L18.8828 13.8408C18.9704 13.7885 19.0466 13.7222 19.1094 13.6465L19.2119 13.5234L19.2549 13.3691C19.5515 12.3054 20.3056 11.7501 21 11.75Z" stroke="#C6C8CE" stroke-width="1.5"/>
<circle id="Ellipse 3" cx="26.5" cy="14.5" r="2.5" fill="#DD0912"/>
</g>
</g>
</g>
</g>
</g>
<defs>
<clipPath id="clip0_1_3">
<rect x="-344" y="-63" width="402" height="874" rx="20" fill="white"/>
</clipPath>
</defs>
</svg>
